# xmcd
#
# Track frame offsets:
#	180
#	17310
#	37253
#
# Disc length: 759 seconds
#
# Revision: 0
# Processed by: cddbd v1.5.2PL0 Copyright (c) Steve Scherf et al.
# Submitted via: audiograbber 1.83.01
#
DISCID=1a02f503
DTITLE=2 In Line - Varjotanssi [CDM)
DYEAR=1995
DGENRE=Dance
TTITLE0=Varjotanssi
TTITLE1=Halki Tulen Ja J‰‰n
TTITLE2=Make The Right Thing
EXTD=TR.
EXTT0=
EXTT1=
EXTT2=
PLAYORDER=
